<?xml version="1.0" encoding="UTF-8" standalone="no"?>
<!-- Created with Inkscape (http://www.inkscape.org/) -->

<svg
   xmlns:dc="http://purl.org/dc/elements/1.1/"
   xmlns:cc="http://creativecommons.org/ns#"
   xmlns:rdf="http://www.w3.org/1999/02/22-rdf-syntax-ns#"
   xmlns:svg="http://www.w3.org/2000/svg"
   xmlns="http://www.w3.org/2000/svg"
   xmlns:sodipodi="http://sodipodi.sourceforge.net/DTD/sodipodi-0.dtd"
   xmlns:inkscape="http://www.inkscape.org/namespaces/inkscape"
   width="210mm"
   height="297mm"
   viewBox="0 0 744.09448819 1052.3622047"
   id="svg2"
   version="1.1"
   inkscape:version="0.91 r13725"
   sodipodi:docname="contra-portada.svg"
   inkscape:export-filename="/home/carlos/workspace/ezzing3d-sandbox/portada_test1.png"
   inkscape:export-xdpi="90"
   inkscape:export-ydpi="90">
  <defs
     id="defs4">
    <clipPath
       clipPathUnits="userSpaceOnUse"
       id="clipPath20">
      <path
         d="M 0,0 560,0 560,155 0,155 0,0 Z"
         id="path22"
         inkscape:connector-curvature="0" />
    </clipPath>
    <clipPath
       clipPathUnits="userSpaceOnUse"
       id="clipPath20-0">
      <path
         d="M 0,0 560,0 560,155 0,155 0,0 Z"
         id="path22-6"
         inkscape:connector-curvature="0" />
    </clipPath>
    <clipPath
       clipPathUnits="userSpaceOnUse"
       id="clipPath68">
      <path
         d="M 0,0 560,0 560,155 0,155 0,0 Z"
         id="path70"
         inkscape:connector-curvature="0" />
    </clipPath>
    <clipPath
       clipPathUnits="userSpaceOnUse"
       id="clipPath86">
      <path
         d="M 0,0 560,0 560,155 0,155 0,0 Z"
         id="path88"
         inkscape:connector-curvature="0" />
    </clipPath>
    <clipPath
       clipPathUnits="userSpaceOnUse"
       id="clipPath3792">
      <path
         style="fill:none;fill-rule:evenodd;stroke:#000000;stroke-width:1px;stroke-linecap:butt;stroke-linejoin:miter;stroke-opacity:1"
         d="m 942.39453,603.02539 c 0,0 -9.27435,2.0835 -12.30273,7.76172 -3.02838,5.67821 -22.14453,43.7207 -22.14453,43.7207 l -28.20313,65.11133 -14.95312,59.24219 -7.19141,52.24023 -0.18945,15.51953 10.59961,42.01953 397.09573,-0.75781 87.6347,-2.83789 c 0,0 -1.5138,-31.79854 0.3789,-39.74804 1.8928,-7.9495 6.4346,-17.98042 5.2989,-30.28321 -1.1356,-12.3028 -5.1096,-19.8754 -5.2989,-24.41797 -0.1892,-4.54257 0.7569,-17.60109 -2.2714,-25.36132 -3.0284,-7.76023 -9.8424,-21.76732 -10.4102,-31.79883 -0.5678,-10.03151 -5.3008,-21.57617 -5.3008,-21.57617 0,0 0.5689,-7.19271 -0.9453,-12.68165 -1.5142,-5.48894 -5.3008,-10.59961 -5.3008,-10.59961 0,0 -7.1914,-9.65368 -9.2734,-19.30664 -2.082,-9.65297 -7.0038,-13.81682 -9.086,-20.4414 -2.082,-6.62459 -7.1916,-15.71025 -11.5449,-17.03516 -4.3532,-1.32492 -8.1386,1.89453 -8.1386,1.89453 0,0 -0.7577,-1.89427 -0.5684,-11.92578 0.1892,-10.03151 -6.2453,-16.2777 -15.709,-16.65625 -9.4637,-0.37854 -332.17577,-2.08203 -332.17577,-2.08203 z m 348.19337,63.35156 c 0,0 0.6702,2.67771 2.6777,5.48828 2.0076,2.81057 1.6055,4.95118 1.6055,4.95118 0,0 0.1337,6.55825 3.0781,12.98242 2.9444,6.42416 3.8807,11.3758 4.416,14.58789 0.5354,3.21208 -0.6689,7.09248 -0.5351,13.38281 0.1338,6.29033 1.0705,6.82677 0.5351,13.38477 -0.5353,6.558 -5.3535,8.43164 -5.3535,8.43164 l -7.7617,-9.36914 0.8027,-59.15625 0.5352,-4.6836 z"
         id="path3794"
         inkscape:connector-curvature="0" />
    </clipPath>
  </defs>
  <sodipodi:namedview
     id="base"
     pagecolor="#ffffff"
     bordercolor="#666666"
     borderopacity="1.0"
     inkscape:pageopacity="0.0"
     inkscape:pageshadow="2"
     inkscape:zoom="1.320838"
     inkscape:cx="372.04724"
     inkscape:cy="526.1811"
     inkscape:document-units="px"
     inkscape:current-layer="layer1"
     showgrid="false"
     inkscape:window-width="3200"
     inkscape:window-height="1671"
     inkscape:window-x="0"
     inkscape:window-y="55"
     inkscape:window-maximized="1" />
  <metadata
     id="metadata7">
    <rdf:RDF>
      <cc:Work
         rdf:about="">
        <dc:format>image/svg+xml</dc:format>
        <dc:type
           rdf:resource="http://purl.org/dc/dcmitype/StillImage" />
        <dc:title></dc:title>
      </cc:Work>
    </rdf:RDF>
  </metadata>
  <g
     inkscape:label="Capa 1"
     inkscape:groupmode="layer"
     id="layer1">
    <rect
       y="948.63507"
       x="7.578125e-06"
       height="103.72714"
       width="744.09448"
       id="rect4708"
       style="fill:#e6e6e6;fill-opacity:1;stroke:none;stroke-width:2;stroke-miterlimit:4;stroke-dasharray:6, 2;stroke-dashoffset:0;stroke-opacity:1" />
    <rect
       ry="0"
       y="-4.2051779e-06"
       x="7.578125e-06"
       height="325.62228"
       width="744.09448"
       id="rect4710"
       style="fill:#222b5d;fill-opacity:1;stroke:none;stroke-width:2;stroke-miterlimit:4;stroke-dasharray:6, 2;stroke-dashoffset:0;stroke-opacity:1" />
    <rect
       ry="0"
       y="-955.45398"
       x="7.578125e-06"
       height="9.3910351"
       width="744.09448"
       id="rect4732"
       style="fill:#222b5d;fill-opacity:1;stroke:none;stroke-width:2;stroke-miterlimit:4;stroke-dasharray:6, 2;stroke-dashoffset:0;stroke-opacity:1"
       transform="scale(1,-1)" />
    <g
       id="g4734"
       transform="matrix(0.78364555,0,0,-0.78364555,8.4705712,941.50752)">
      <g
         id="g4736"
         transform="translate(133.6816,97.5645)">
        <path
           d="m 0,0 -7.792,-9.079 22.757,0 L 22.805,0 0,0 Z"
           style="fill:#222b5d;fill-opacity:1;fill-rule:nonzero;stroke:none"
           id="path4738"
           inkscape:connector-curvature="0" />
      </g>
      <g
         id="g4740">
        <g
           id="g4742"
           clip-path="url(#clipPath20-0)">
          <g
             id="g4744"
             transform="translate(65.272,80.3643)">
            <path
               d="m 0,0 c -1.52,5.816 -5.187,8.723 -11.002,8.723 -1.324,0 -2.567,-0.202 -3.731,-0.606 C -15.896,7.713 -16.954,7.133 -17.907,6.374 -18.86,5.614 -19.676,4.703 -20.353,3.635 -21.032,2.569 -21.548,1.357 -21.904,0 L 0,0 Z m 11.193,-8.915 -33.825,0 c 0.291,-3.877 1.551,-6.964 3.781,-9.257 2.228,-2.261 5.087,-3.391 8.577,-3.391 2.714,0 4.959,0.643 6.736,1.937 1.743,1.293 3.731,3.683 5.961,7.172 l 9.208,-5.138 c -1.422,-2.421 -2.925,-4.498 -4.508,-6.227 -1.583,-1.726 -3.28,-3.148 -5.088,-4.265 -1.81,-1.113 -3.765,-1.927 -5.864,-2.447 -2.101,-0.514 -4.377,-0.774 -6.833,-0.774 -7.044,0 -12.697,2.262 -16.961,6.785 -4.265,4.555 -6.396,10.596 -6.396,18.124 0,7.462 2.068,13.503 6.203,18.123 4.166,4.557 9.69,6.834 16.573,6.834 6.946,0 12.437,-2.211 16.477,-6.639 4.005,-4.393 6.008,-10.484 6.008,-18.269 l -0.049,-2.568 z"
               style="fill:#222b5d;fill-opacity:1;fill-rule:nonzero;stroke:none"
               id="path4746"
               inkscape:connector-curvature="0" />
          </g>
          <g
             id="g4748"
             transform="translate(180.6279,113.6152)">
            <path
               d="m 0,0 c 0,1.832 0.668,3.417 2.002,4.751 1.335,1.336 2.934,2.002 4.798,2.002 1.892,0 3.508,-0.666 4.843,-2.002 1.334,-1.303 2.002,-2.904 2.002,-4.798 0,-1.893 -0.668,-3.508 -2.002,-4.842 -1.304,-1.335 -2.904,-2.004 -4.797,-2.004 -1.896,0 -3.509,0.669 -4.844,2.004 C 0.668,-3.555 0,-1.925 0,0"
               style="fill:#222b5d;fill-opacity:1;fill-rule:nonzero;stroke:none"
               id="path4750"
               inkscape:connector-curvature="0" />
          </g>
          <g
             id="g4752"
             transform="translate(204.5645,97.6162)">
            <path
               d="m 0,0 11.399,0 0,-4.603 c 3.812,3.777 7.853,5.912 12.635,5.912 5.492,0 9.772,-1.729 12.842,-5.186 2.647,-2.938 4.166,-7.736 4.166,-14.391 l 0,-29.636 -11.401,0 0,27.033 c 0,4.645 -0.389,7.857 -1.681,9.631 -1.26,1.807 -3.556,2.711 -6.881,2.711 -3.619,0 -6.188,-1.194 -7.706,-3.582 -1.487,-2.355 -1.974,-6.467 -1.974,-12.34 l 0,-23.453 L 0,-47.904 0,0 Z"
               style="fill:#222b5d;fill-opacity:1;fill-rule:nonzero;stroke:none"
               id="path4754"
               inkscape:connector-curvature="0" />
          </g>
          <g
             id="g4756"
             transform="translate(289.8594,74.958)">
            <path
               d="m 0,0 c 0,4.58 -1.229,8.24 -3.687,10.982 -2.485,2.807 -5.667,4.209 -9.545,4.209 -4.135,0 -7.396,-1.532 -9.789,-4.595 -2.165,-2.742 -3.246,-6.291 -3.246,-10.645 0,-4.292 1.081,-7.805 3.246,-10.55 2.36,-2.999 5.623,-4.496 9.789,-4.496 4.169,0 7.462,1.515 9.884,4.546 C -1.116,-7.807 0,-4.291 0,0 m 10.467,-22.365 c 0,-2.23 -0.072,-4.193 -0.219,-5.888 -0.145,-1.694 -0.349,-3.19 -0.605,-4.482 -0.775,-3.556 -2.295,-6.609 -4.556,-9.16 -4.264,-4.912 -10.127,-7.365 -17.591,-7.365 -6.298,0 -11.485,1.705 -15.556,5.114 -4.2,3.503 -6.427,8.165 -7.073,14.333 l 10.952,0 c 0.42,-2.327 0.918,-3.94 1.889,-5.201 2.261,-2.941 5.555,-4.409 9.886,-4.409 7.978,0 11.471,4.879 11.471,14.633 l 0,6.427 c -4.331,-4.428 -8.821,-6.474 -14.476,-6.474 -6.429,0 -11.695,2.327 -15.797,6.978 -4.135,4.716 -6.204,10.615 -6.204,17.689 0,6.881 1.922,12.727 5.766,17.543 4.137,5.105 9.596,7.655 16.379,7.655 5.945,0 10.391,-2.535 14.332,-6.961 l 0,4.56 11.402,0 0,-44.992 z"
               style="fill:#222b5d;fill-opacity:1;fill-rule:nonzero;stroke:none"
               id="path4758"
               inkscape:connector-curvature="0" />
          </g>
        </g>
      </g>
      <g
         id="g4760"
         transform="translate(111.0527,97.5908)">
        <path
           d="m 0,0 -27.333,0 0,-9.103 19.473,0 L 0,0 Z"
           style="fill:#222b5d;fill-opacity:1;fill-rule:nonzero;stroke:none"
           id="path4762"
           inkscape:connector-curvature="0" />
      </g>
      <g
         id="g4764"
         transform="translate(137.4746,49.7119)">
        <path
           d="m 0,0 28.328,0 0,9.104 -20.514,0 L 0,0 Z"
           style="fill:#222b5d;fill-opacity:1;fill-rule:nonzero;stroke:none"
           id="path4766"
           inkscape:connector-curvature="0" />
      </g>
      <g
         id="g4768"
         transform="translate(100.5869,58.8037)">
        <path
           d="m 0,0 -7.792,-9.079 22.757,0 L 22.805,0 0,0 Z"
           style="fill:#222b5d;fill-opacity:1;fill-rule:nonzero;stroke:none"
           id="path4770"
           inkscape:connector-curvature="0" />
      </g>
      <g
         id="g4772"
         transform="translate(115.7095,97.6162)">
        <path
           d="m 0,0 13.611,-0.031 -41.042,-47.882 -13.679,0 L 0,0 Z"
           style="fill:#6eb122;fill-opacity:1;fill-rule:nonzero;stroke:none"
           id="path4774"
           inkscape:connector-curvature="0" />
      </g>
      <g
         id="g4776"
         transform="translate(161.209,97.6162)">
        <path
           d="m 0,0 13.714,0 -41.822,-47.913 -13.003,0 L 0,0 Z"
           style="fill:#6eb122;fill-opacity:1;fill-rule:nonzero;stroke:none"
           id="path4778"
           inkscape:connector-curvature="0" />
      </g>
      <g
         id="g4780"
         transform="translate(193.1509,97.6162)">
        <path
           d="m 0,0 0,-47.913 -11.401,0 0,47.913"
           style="fill:#222b5d;fill-opacity:1;fill-rule:nonzero;stroke:none"
           id="path4782"
           inkscape:connector-curvature="0" />
      </g>
      <g
         id="g4784">
        <g
           id="g4786"
           clip-path="url(#clipPath68)">
          <g
             id="g4788"
             transform="translate(340.5107,90.5234)">
            <path
               d="m 0,0 -9.126,-4.86 c -1.44,2.912 -3.224,4.369 -5.35,4.369 -1.012,0 -1.88,-0.336 -2.599,-1.006 -0.719,-0.671 -1.079,-1.527 -1.079,-2.572 0,-1.83 2.126,-3.643 6.379,-5.442 5.855,-2.513 9.796,-4.834 11.825,-6.958 2.027,-2.124 3.041,-4.981 3.041,-8.575 0,-4.607 -1.702,-8.463 -5.105,-11.564 -3.302,-2.943 -7.294,-4.413 -11.97,-4.413 -8.014,0 -13.689,3.911 -17.027,11.728 l 9.422,4.366 c 1.308,-2.29 2.306,-3.745 2.992,-4.366 1.342,-1.244 2.945,-1.864 4.81,-1.864 3.727,0 5.594,1.699 5.594,5.102 0,1.963 -1.443,3.796 -4.32,5.496 -1.111,0.556 -2.224,1.093 -3.337,1.619 -1.111,0.522 -2.239,1.061 -3.384,1.619 -3.205,1.568 -5.461,3.141 -6.77,4.711 -1.669,1.994 -2.503,4.563 -2.503,7.703 0,4.153 1.423,7.59 4.269,10.303 2.911,2.715 6.444,4.072 10.596,4.072 C -7.524,9.468 -2.979,6.312 0,0"
               style="fill:#6eb122;fill-opacity:1;fill-rule:nonzero;stroke:none"
               id="path4790"
               inkscape:connector-curvature="0" />
          </g>
          <g
             id="g4792"
             transform="translate(359.3418,74.9189)">
            <path
               d="m 0,0 c 0,-4.775 1.275,-8.554 3.828,-11.334 2.615,-2.812 6.068,-4.218 10.354,-4.218 4.316,0 7.767,1.389 10.351,4.17 2.584,2.778 3.877,6.492 3.877,11.138 0,4.644 -1.293,8.354 -3.877,11.137 -2.616,2.815 -6.068,4.22 -10.351,4.22 -4.221,0 -7.639,-1.405 -10.254,-4.22 C 1.309,8.08 0,4.448 0,0 m -11.284,0.197 c 0,6.901 2.47,12.772 7.409,17.614 4.938,4.842 10.957,7.261 18.057,7.261 7.131,0 13.179,-2.435 18.153,-7.308 4.906,-4.877 7.359,-10.862 7.359,-17.957 0,-7.166 -2.469,-13.17 -7.408,-18.01 -4.973,-4.807 -11.073,-7.213 -18.303,-7.213 -7.163,0 -13.166,2.454 -18.005,7.361 -4.841,4.841 -7.262,10.925 -7.262,18.252"
               style="fill:#6eb122;fill-opacity:1;fill-rule:nonzero;stroke:none"
               id="path4794"
               inkscape:connector-curvature="0" />
          </g>
        </g>
      </g>
      <path
         d="m 420.66,50.878 -11.039,0 0,69.508 11.039,0 0,-69.508 z"
         style="fill:#6eb122;fill-opacity:1;fill-rule:nonzero;stroke:none"
         id="path4796"
         inkscape:connector-curvature="0" />
      <g
         id="g4798">
        <g
           id="g4800"
           clip-path="url(#clipPath86)">
          <g
             id="g4802"
             transform="translate(443.3594,74.9189)">
            <path
               d="m 0,0 c 0,-4.578 1.227,-8.309 3.682,-11.186 2.516,-2.912 5.69,-4.366 9.517,-4.366 4.088,0 7.391,1.406 9.911,4.218 2.518,2.912 3.778,6.607 3.778,11.09 0,4.48 -1.26,8.178 -3.778,11.088 -2.52,2.847 -5.789,4.269 -9.813,4.269 -3.795,0 -6.967,-1.441 -9.519,-4.317 C 1.258,7.884 0,4.286 0,0 m 26.201,23.749 11.089,0 0,-47.79 -11.089,0 0,5.005 c -4.547,-4.252 -9.435,-6.38 -14.671,-6.38 -6.607,0 -12.069,2.388 -16.387,7.164 -4.288,4.874 -6.428,10.959 -6.428,18.252 0,7.164 2.14,13.135 6.428,17.91 4.285,4.774 9.649,7.162 16.093,7.162 5.56,0 10.548,-2.289 14.965,-6.868 l 0,5.545 z"
               style="fill:#6eb122;fill-opacity:1;fill-rule:nonzero;stroke:none"
               id="path4804"
               inkscape:connector-curvature="0" />
          </g>
          <g
             id="g4806"
             transform="translate(491.7041,98.668)">
            <path
               d="m 0,0 11.038,0 0,-4.271 c 2.029,2.127 3.828,3.582 5.397,4.37 1.603,0.816 3.503,1.224 5.693,1.224 2.91,0 5.954,-0.948 9.126,-2.844 L 26.2,-11.63 c -2.094,1.506 -4.139,2.257 -6.134,2.257 -6.018,0 -9.028,-4.546 -9.028,-13.64 l 0,-24.777 L 0,-47.79 0,0 Z"
               style="fill:#6eb122;fill-opacity:1;fill-rule:nonzero;stroke:none"
               id="path4808"
               inkscape:connector-curvature="0" />
          </g>
          <g
             id="g4810"
             transform="translate(523.3887,38.7705)">
            <path
               d="m 0,0 0.154,0 c 0.522,0 1.108,0.098 1.108,0.766 0,0.669 -0.586,0.766 -1.108,0.766 L 0,1.532 0,0 Z m 3.51,-3.388 -1.989,0 -1.505,2.362 -0.016,0 0,-2.362 -1.598,0 0,6.141 2.388,0 c 1.213,0 2.134,-0.578 2.134,-1.89 0,-0.846 -0.473,-1.579 -1.344,-1.734 l 1.93,-2.517 z"
               style="fill:#222b5d;fill-opacity:1;fill-rule:nonzero;stroke:none"
               id="path4812"
               inkscape:connector-curvature="0" />
          </g>
          <g
             id="g4814"
             transform="translate(523.9375,43.9297)">
            <path
               d="m 0,0 c -3.02,0 -5.478,-2.456 -5.478,-5.477 0,-3.019 2.458,-5.476 5.478,-5.476 3.021,0 5.478,2.457 5.478,5.476 C 5.478,-2.456 3.021,0 0,0 m 0,-12.176 c -3.693,0 -6.698,3.005 -6.698,6.699 0,3.695 3.005,6.7 6.698,6.7 3.693,0 6.699,-3.005 6.699,-6.7 0,-3.694 -3.006,-6.699 -6.699,-6.699"
               style="fill:#222b5d;fill-opacity:1;fill-rule:nonzero;stroke:none"
               id="path4816"
               inkscape:connector-curvature="0" />
          </g>
        </g>
      </g>
    </g>
  </g>
</svg>
